<svg data-v-1e121de1="" version="1.0" xmlns="http://www.w3.org/2000/svg" xmlns:xlink="http://www.w3.org/1999/xlink" width="100%" height="100%" viewBox="0 0 340.000000 250.000000" preserveAspectRatio="xMidYMid meet" color-interpolation-filters="sRGB" class="el-tooltip" style="margin: auto;"><rect data-v-1e121de1="" x="0" y="0" width="100%" height="100%" fill="#fff" fill-opacity="1" class="background"></rect> <rect data-v-1e121de1="" x="0" y="0" width="100%" height="100%" fill="url(#watermark)" fill-opacity="1" class="watermarklayer"></rect> <g data-v-1e121de1="" fill="#444" class="icon-text-wrapper icon-svg-group iconsvg" transform="translate(91.44632720947266,59.501251220703125)"><g class="iconsvg-imagesvg font-path" transform="translate(31.553672790527344,0)"><rect fill="#444" fill-opacity="0" stroke-width="2" x="0" y="0" width="94" height="93.39749748987393" class="image-rect"></rect> <svg viewBox="17 16.89103678008358 60 59.615423929706765" x="0" y="0" width="94" height="93.39749748987393" filtersec="colorsf9933719197" class="image-svg-svg initial"><g mask="url(#cbbae8a6-0fb6-441b-ad6e-8105658acfd0)"><svg xmlns="http://www.w3.org/2000/svg" xmlns:xlink="http://www.w3.org/1999/xlink" version="1.1" x="17" y="16.89103678008358" viewBox="-0.20631885528564453 -0.0006113052368164062 64.4134750366211 64.0006103515625" enable-background="new 0 0 64 64" xml:space="preserve" width="60" height="59.615423929706765" filter="url(#colors8237284722)"><path d="M59.178,28.276c-0.132-1.09-0.04-2.357,0.059-3.699c0.063-0.863,0.209-2.867,0.052-3.352  c-0.201-0.459-1.639-1.861-2.252-2.459c-0.966-0.942-1.878-1.832-2.507-2.742c-0.624-0.905-1.131-2.072-1.669-3.308  c-0.344-0.789-1.146-2.631-1.51-2.986c-0.392-0.313-2.315-0.887-3.138-1.132c-1.293-0.386-2.515-0.75-3.491-1.263  c-0.973-0.51-1.965-1.308-3.014-2.15c-0.677-0.542-2.242-1.8-2.727-1.945c0.012,0.004-0.057-0.005-0.192-0.004  c-0.763,0-2.007,0.243-3.105,0.458c-1.33,0.262-2.582,0.507-3.685,0.507c-1.1,0-2.351-0.245-3.674-0.505  c-1.102-0.216-2.349-0.46-3.114-0.46c-0.125,0-0.194,0.007-0.217,0.009c-0.464,0.143-1.972,1.354-2.695,1.936  c-1.053,0.846-2.047,1.644-3.022,2.156c-0.975,0.512-2.197,0.876-3.49,1.262c-0.822,0.245-2.747,0.819-3.145,1.138  c-0.357,0.35-1.159,2.191-1.501,2.978c-0.54,1.238-1.047,2.405-1.673,3.313c-0.627,0.907-1.539,1.797-2.505,2.739  c-0.614,0.598-2.051,2-2.255,2.466c-0.154,0.477-0.007,2.479,0.055,3.333c0.098,1.348,0.19,2.619,0.058,3.713  s-0.527,2.307-0.945,3.592c-0.266,0.817-0.887,2.727-0.851,3.232c0.085,0.491,1.146,2.197,1.598,2.926  c0.712,1.146,1.385,2.229,1.776,3.259c0.389,1.026,0.604,2.28,0.83,3.605c0.146,0.857,0.485,2.838,0.753,3.271  c0.305,0.396,2.037,1.415,2.777,1.851c1.163,0.684,2.261,1.329,3.085,2.059c0.822,0.728,1.595,1.739,2.414,2.811  c0.524,0.688,1.744,2.283,2.181,2.542c0.454,0.209,2.458,0.306,3.314,0.348c1.35,0.064,2.625,0.125,3.693,0.39  c1.069,0.263,2.226,0.8,3.45,1.369c0.834,0.388,2.546,1.184,3.102,1.232c0.557-0.049,2.272-0.846,3.101-1.23  c1.226-0.569,2.384-1.108,3.45-1.371c1.071-0.265,2.346-0.325,3.696-0.39c0.854-0.042,2.859-0.139,3.321-0.353  c0.429-0.253,1.602-1.787,2.165-2.525c0.824-1.079,1.598-2.093,2.424-2.824c0.823-0.728,1.921-1.373,3.084-2.057  c0.739-0.436,2.471-1.454,2.781-1.859c0.264-0.425,0.602-2.405,0.746-3.251c0.228-1.336,0.442-2.59,0.832-3.616  c0.392-1.029,1.063-2.112,1.775-3.259c0.453-0.729,1.514-2.435,1.6-2.935c0.035-0.498-0.563-2.337-0.851-3.222  C59.705,30.585,59.311,29.372,59.178,28.276z"></path><path d="M62.39,27.888c-0.233-1.938,0.617-5.98-0.075-7.806c-0.691-1.825-4.011-4.288-5.12-5.894  c-1.108-1.608-2.233-5.583-3.695-6.877c-1.46-1.294-5.544-1.933-7.272-2.84s-4.572-3.904-6.468-4.372  C37.864-0.368,33.952,0.964,32,0.964c-1.952,0-5.863-1.333-7.759-0.865c-1.895,0.467-4.739,3.464-6.467,4.372  c-1.729,0.907-5.813,1.546-7.273,2.84c-1.462,1.294-2.587,5.27-3.695,6.877c-1.109,1.606-4.429,4.068-5.121,5.894  c-0.692,1.826,0.161,5.869-0.075,7.806c-0.235,1.938-2.031,5.661-1.795,7.6c0.235,1.938,2.869,5.122,3.561,6.947  c0.692,1.824,0.833,5.954,1.943,7.561c1.108,1.606,4.92,3.204,6.382,4.498c1.46,1.293,3.506,4.886,5.233,5.793  s5.846,0.549,7.741,1.017C26.569,61.77,30.049,64,32,64c1.952,0,5.431-2.23,7.327-2.697c1.895-0.468,6.013-0.109,7.74-1.017  c1.729-0.907,3.773-4.5,5.233-5.793c1.462-1.294,5.274-2.892,6.382-4.498c1.109-1.606,1.251-5.736,1.943-7.561  c0.691-1.825,3.325-5.01,3.561-6.947C64.421,33.549,62.625,29.826,62.39,27.888z M59.847,38.32  c-0.697,1.123-1.356,2.184-1.729,3.163c-0.37,0.977-0.579,2.203-0.802,3.503c-0.244,1.428-0.529,2.984-0.839,3.482  c-0.361,0.475-1.715,1.292-2.957,2.022c-1.139,0.669-2.214,1.301-2.997,1.994c-0.785,0.695-1.543,1.688-2.345,2.738  c-0.877,1.147-1.85,2.39-2.354,2.687c-0.541,0.251-2.116,0.345-3.553,0.414c-1.321,0.063-2.569,0.124-3.589,0.376  c-1.015,0.25-2.148,0.777-3.349,1.334c-1.294,0.603-2.725,1.247-3.318,1.284H32l-0.018-0.001c-0.591-0.036-2.019-0.681-3.31-1.28  c-1.208-0.561-2.34-1.087-3.357-1.337c-1.017-0.252-2.265-0.313-3.587-0.376c-1.437-0.069-3.013-0.163-3.545-0.41  c-0.514-0.302-1.487-1.546-2.359-2.689c-0.806-1.056-1.563-2.046-2.346-2.739s-1.859-1.325-2.997-1.994  c-1.242-0.73-2.596-1.549-2.953-2.016c-0.315-0.507-0.6-2.062-0.842-3.479c-0.224-1.31-0.433-2.536-0.803-3.513  c-0.372-0.979-1.032-2.04-1.729-3.163c-0.76-1.223-1.579-2.575-1.678-3.153c-0.043-0.593,0.428-2.1,0.873-3.466  c0.41-1.261,0.796-2.45,0.923-3.49c0.126-1.04,0.036-2.287-0.061-3.605c-0.105-1.434-0.202-3.012-0.02-3.571  c0.238-0.546,1.355-1.663,2.386-2.667c0.946-0.923,1.839-1.794,2.435-2.657c0.595-0.863,1.092-2.006,1.62-3.217  c0.575-1.322,1.224-2.765,1.644-3.174c0.465-0.374,1.974-0.842,3.353-1.254c1.267-0.377,2.463-0.733,3.392-1.221  c0.927-0.487,1.9-1.269,2.931-2.097c1.121-0.9,2.363-1.875,2.926-2.044l0.047-0.014l0.049,0.003  c0.003-0.004,0.089-0.012,0.238-0.012c0.819,0,2.094,0.25,3.218,0.469c1.299,0.255,2.523,0.495,3.57,0.495  c1.048,0,2.274-0.241,3.571-0.495c1.13-0.221,2.402-0.469,3.219-0.469c0.221,0,0.315,0.018,0.332,0.021  c0.563,0.167,1.805,1.143,2.927,2.044c1.036,0.832,2.007,1.612,2.933,2.098c0.929,0.488,2.125,0.844,3.392,1.222  c1.379,0.412,2.889,0.881,3.347,1.249c0.427,0.415,1.074,1.857,1.648,3.177c0.528,1.212,1.026,2.356,1.619,3.217  c0.598,0.865,1.49,1.736,2.437,2.659c1.03,1.004,2.149,2.122,2.384,2.661c0.185,0.567,0.088,2.146-0.018,3.581  c-0.096,1.321-0.187,2.563-0.061,3.599c0.127,1.042,0.513,2.231,0.922,3.489c0.446,1.369,0.917,2.877,0.874,3.462  C61.424,35.747,60.606,37.098,59.847,38.32z"></path></svg><g fill="#444" transform="translate(29.128695652173914,32.74874874493696)"><g transform="translate(0, 0)"><g><path d="M16.44-27.90L16.47-27.90L26.01-27.90L24.21-24.80L16.79-24.80Q13.86-24.80 11.35-23.34Q8.84-21.89 7.39-19.38Q5.93-16.87 5.93-13.94Q5.93-11.00 7.39-8.50Q8.84-6.01 11.35-4.56Q13.86-3.10 16.79-3.10L16.79-3.10L22.91-3.10L22.91-12.08L15.28-12.08L13.51-15.18L26.01-15.18L26.01-3.10L26.01 0L22.91 0L16.44 0Q13.64 0 11.05-1.11Q8.46-2.21 6.59-4.08Q4.72-5.96 3.61-8.55Q2.51-11.13 2.51-13.95Q2.51-16.77 3.61-19.35Q4.72-21.94 6.59-23.82Q8.46-25.69 11.05-26.79Q13.64-27.90 16.44-27.90L16.44-27.90Z" transform="translate(-2.5069565217391303, 27.9)"></path></g></g><g transform="translate(12.506086956521738, 0)"><g><path d="M22.72-15.50L22.72-27.90L25.82-27.90L25.82 0L22.72 0L22.72-12.40L8.14-12.40L6.33-15.50L22.72-15.50ZM2.59 0L2.59-27.90L5.69-27.90L5.69 0L2.59 0Z" transform="translate(-2.5878260869565217, 27.9)"></path></g></g></g></g><mask id="cbbae8a6-0fb6-441b-ad6e-8105658acfd0"><g><svg xmlns="http://www.w3.org/2000/svg" xmlns:xlink="http://www.w3.org/1999/xlink" version="1.1" x="17" y="16.89103678008358" viewBox="-0.20631885528564453 -0.0006113052368164062 64.4134750366211 64.0006103515625" enable-background="new 0 0 64 64" xml:space="preserve" width="60" height="59.615423929706765" stroke="#ffffff" fill="#ffffff"><path d="M59.178,28.276c-0.132-1.09-0.04-2.357,0.059-3.699c0.063-0.863,0.209-2.867,0.052-3.352  c-0.201-0.459-1.639-1.861-2.252-2.459c-0.966-0.942-1.878-1.832-2.507-2.742c-0.624-0.905-1.131-2.072-1.669-3.308  c-0.344-0.789-1.146-2.631-1.51-2.986c-0.392-0.313-2.315-0.887-3.138-1.132c-1.293-0.386-2.515-0.75-3.491-1.263  c-0.973-0.51-1.965-1.308-3.014-2.15c-0.677-0.542-2.242-1.8-2.727-1.945c0.012,0.004-0.057-0.005-0.192-0.004  c-0.763,0-2.007,0.243-3.105,0.458c-1.33,0.262-2.582,0.507-3.685,0.507c-1.1,0-2.351-0.245-3.674-0.505  c-1.102-0.216-2.349-0.46-3.114-0.46c-0.125,0-0.194,0.007-0.217,0.009c-0.464,0.143-1.972,1.354-2.695,1.936  c-1.053,0.846-2.047,1.644-3.022,2.156c-0.975,0.512-2.197,0.876-3.49,1.262c-0.822,0.245-2.747,0.819-3.145,1.138  c-0.357,0.35-1.159,2.191-1.501,2.978c-0.54,1.238-1.047,2.405-1.673,3.313c-0.627,0.907-1.539,1.797-2.505,2.739  c-0.614,0.598-2.051,2-2.255,2.466c-0.154,0.477-0.007,2.479,0.055,3.333c0.098,1.348,0.19,2.619,0.058,3.713  s-0.527,2.307-0.945,3.592c-0.266,0.817-0.887,2.727-0.851,3.232c0.085,0.491,1.146,2.197,1.598,2.926  c0.712,1.146,1.385,2.229,1.776,3.259c0.389,1.026,0.604,2.28,0.83,3.605c0.146,0.857,0.485,2.838,0.753,3.271  c0.305,0.396,2.037,1.415,2.777,1.851c1.163,0.684,2.261,1.329,3.085,2.059c0.822,0.728,1.595,1.739,2.414,2.811  c0.524,0.688,1.744,2.283,2.181,2.542c0.454,0.209,2.458,0.306,3.314,0.348c1.35,0.064,2.625,0.125,3.693,0.39  c1.069,0.263,2.226,0.8,3.45,1.369c0.834,0.388,2.546,1.184,3.102,1.232c0.557-0.049,2.272-0.846,3.101-1.23  c1.226-0.569,2.384-1.108,3.45-1.371c1.071-0.265,2.346-0.325,3.696-0.39c0.854-0.042,2.859-0.139,3.321-0.353  c0.429-0.253,1.602-1.787,2.165-2.525c0.824-1.079,1.598-2.093,2.424-2.824c0.823-0.728,1.921-1.373,3.084-2.057  c0.739-0.436,2.471-1.454,2.781-1.859c0.264-0.425,0.602-2.405,0.746-3.251c0.228-1.336,0.442-2.59,0.832-3.616  c0.392-1.029,1.063-2.112,1.775-3.259c0.453-0.729,1.514-2.435,1.6-2.935c0.035-0.498-0.563-2.337-0.851-3.222  C59.705,30.585,59.311,29.372,59.178,28.276z"></path><path d="M62.39,27.888c-0.233-1.938,0.617-5.98-0.075-7.806c-0.691-1.825-4.011-4.288-5.12-5.894  c-1.108-1.608-2.233-5.583-3.695-6.877c-1.46-1.294-5.544-1.933-7.272-2.84s-4.572-3.904-6.468-4.372  C37.864-0.368,33.952,0.964,32,0.964c-1.952,0-5.863-1.333-7.759-0.865c-1.895,0.467-4.739,3.464-6.467,4.372  c-1.729,0.907-5.813,1.546-7.273,2.84c-1.462,1.294-2.587,5.27-3.695,6.877c-1.109,1.606-4.429,4.068-5.121,5.894  c-0.692,1.826,0.161,5.869-0.075,7.806c-0.235,1.938-2.031,5.661-1.795,7.6c0.235,1.938,2.869,5.122,3.561,6.947  c0.692,1.824,0.833,5.954,1.943,7.561c1.108,1.606,4.92,3.204,6.382,4.498c1.46,1.293,3.506,4.886,5.233,5.793  s5.846,0.549,7.741,1.017C26.569,61.77,30.049,64,32,64c1.952,0,5.431-2.23,7.327-2.697c1.895-0.468,6.013-0.109,7.74-1.017  c1.729-0.907,3.773-4.5,5.233-5.793c1.462-1.294,5.274-2.892,6.382-4.498c1.109-1.606,1.251-5.736,1.943-7.561  c0.691-1.825,3.325-5.01,3.561-6.947C64.421,33.549,62.625,29.826,62.39,27.888z M59.847,38.32  c-0.697,1.123-1.356,2.184-1.729,3.163c-0.37,0.977-0.579,2.203-0.802,3.503c-0.244,1.428-0.529,2.984-0.839,3.482  c-0.361,0.475-1.715,1.292-2.957,2.022c-1.139,0.669-2.214,1.301-2.997,1.994c-0.785,0.695-1.543,1.688-2.345,2.738  c-0.877,1.147-1.85,2.39-2.354,2.687c-0.541,0.251-2.116,0.345-3.553,0.414c-1.321,0.063-2.569,0.124-3.589,0.376  c-1.015,0.25-2.148,0.777-3.349,1.334c-1.294,0.603-2.725,1.247-3.318,1.284H32l-0.018-0.001c-0.591-0.036-2.019-0.681-3.31-1.28  c-1.208-0.561-2.34-1.087-3.357-1.337c-1.017-0.252-2.265-0.313-3.587-0.376c-1.437-0.069-3.013-0.163-3.545-0.41  c-0.514-0.302-1.487-1.546-2.359-2.689c-0.806-1.056-1.563-2.046-2.346-2.739s-1.859-1.325-2.997-1.994  c-1.242-0.73-2.596-1.549-2.953-2.016c-0.315-0.507-0.6-2.062-0.842-3.479c-0.224-1.31-0.433-2.536-0.803-3.513  c-0.372-0.979-1.032-2.04-1.729-3.163c-0.76-1.223-1.579-2.575-1.678-3.153c-0.043-0.593,0.428-2.1,0.873-3.466  c0.41-1.261,0.796-2.45,0.923-3.49c0.126-1.04,0.036-2.287-0.061-3.605c-0.105-1.434-0.202-3.012-0.02-3.571  c0.238-0.546,1.355-1.663,2.386-2.667c0.946-0.923,1.839-1.794,2.435-2.657c0.595-0.863,1.092-2.006,1.62-3.217  c0.575-1.322,1.224-2.765,1.644-3.174c0.465-0.374,1.974-0.842,3.353-1.254c1.267-0.377,2.463-0.733,3.392-1.221  c0.927-0.487,1.9-1.269,2.931-2.097c1.121-0.9,2.363-1.875,2.926-2.044l0.047-0.014l0.049,0.003  c0.003-0.004,0.089-0.012,0.238-0.012c0.819,0,2.094,0.25,3.218,0.469c1.299,0.255,2.523,0.495,3.57,0.495  c1.048,0,2.274-0.241,3.571-0.495c1.13-0.221,2.402-0.469,3.219-0.469c0.221,0,0.315,0.018,0.332,0.021  c0.563,0.167,1.805,1.143,2.927,2.044c1.036,0.832,2.007,1.612,2.933,2.098c0.929,0.488,2.125,0.844,3.392,1.222  c1.379,0.412,2.889,0.881,3.347,1.249c0.427,0.415,1.074,1.857,1.648,3.177c0.528,1.212,1.026,2.356,1.619,3.217  c0.598,0.865,1.49,1.736,2.437,2.659c1.03,1.004,2.149,2.122,2.384,2.661c0.185,0.567,0.088,2.146-0.018,3.581  c-0.096,1.321-0.187,2.563-0.061,3.599c0.127,1.042,0.513,2.231,0.922,3.489c0.446,1.369,0.917,2.877,0.874,3.462  C61.424,35.747,60.606,37.098,59.847,38.32z"></path></svg><g transform="translate(29.128695652173914,32.74874874493696)" fill="#000000"><g transform="translate(0, 0)"><g><path d="M16.44-27.90L16.47-27.90L26.01-27.90L24.21-24.80L16.79-24.80Q13.86-24.80 11.35-23.34Q8.84-21.89 7.39-19.38Q5.93-16.87 5.93-13.94Q5.93-11.00 7.39-8.50Q8.84-6.01 11.35-4.56Q13.86-3.10 16.79-3.10L16.79-3.10L22.91-3.10L22.91-12.08L15.28-12.08L13.51-15.18L26.01-15.18L26.01-3.10L26.01 0L22.91 0L16.44 0Q13.64 0 11.05-1.11Q8.46-2.21 6.59-4.08Q4.72-5.96 3.61-8.55Q2.51-11.13 2.51-13.95Q2.51-16.77 3.61-19.35Q4.72-21.94 6.59-23.82Q8.46-25.69 11.05-26.79Q13.64-27.90 16.44-27.90L16.44-27.90Z" transform="translate(-2.5069565217391303, 27.9)"></path></g></g><g transform="translate(12.506086956521738, 0)"><g><path d="M22.72-15.50L22.72-27.90L25.82-27.90L25.82 0L22.72 0L22.72-12.40L8.14-12.40L6.33-15.50L22.72-15.50ZM2.59 0L2.59-27.90L5.69-27.90L5.69 0L2.59 0Z" transform="translate(-2.5878260869565217, 27.9)"></path></g></g></g></g></mask></svg> <defs><filter id="colors8237284722"><feColorMatrix type="matrix" values="0 0 0 0 0.265625  0 0 0 0 0.265625  0 0 0 0 0.265625  0 0 0 1 0" class="icon-fecolormatrix"></feColorMatrix></filter> <filter id="colorsf9933719197"><feColorMatrix type="matrix" values="0 0 0 0 0.99609375  0 0 0 0 0.99609375  0 0 0 0 0.99609375  0 0 0 1 0" class="icon-fecolormatrix"></feColorMatrix></filter> <filter id="colorsb4634404602"><feColorMatrix type="matrix" values="0 0 0 0 0  0 0 0 0 0  0 0 0 0 0  0 0 0 1 0" class="icon-fecolormatrix"></feColorMatrix></filter></defs></g> <g transform="translate(0,69.39749908447266)"><g fill-rule="evenodd" class="tp-name iconsvg-namesvg"><g><path d="M 9.2 30.5 L 23.5 15.5 L 31.7 23.3 A 5.7 5.7 0 0 1 33.2 25.4 Q 33.6 26.6 33.5 27.8 Q 33.4 28.9 32.9 30 A 7.5 7.5 0 0 1 31.5 32 A 7.4 7.4 0 0 1 29.6 33.5 A 7.2 7.2 0 0 1 27.4 34.2 A 5.1 5.1 0 0 1 25 34.1 Q 23.8 33.7 22.8 32.7 L 20.4 30.5 L 21.8 42.4 L 19.2 39.9 L 17.6 26.7 L 19.3 26.2 L 24.4 31 Q 25 31.6 25.7 31.8 A 3.2 3.2 0 0 0 27.2 31.9 A 4.5 4.5 0 0 0 28.6 31.4 A 5.2 5.2 0 0 0 29.8 30.4 Q 30.4 29.9 30.7 29.2 Q 31.1 28.5 31.2 27.7 Q 31.3 27 31 26.3 A 3.4 3.4 0 0 0 30.1 24.9 L 23.5 18.7 L 10.9 32.1 L 9.2 30.5 Z M 85.4 58.1 L 85.3 40.8 L 87.6 40.8 L 87.7 61.4 L 87.7 61.4 L 85 61.5 L 72.7 44.1 L 72.8 61.5 L 70.5 61.6 L 70.4 40.9 L 73.2 40.8 L 85.4 58.1 Z M 114.2 31.2 L 114.2 31.2 L 120.4 27.8 L 120.4 30.5 L 115.6 33.1 Q 113.7 34.2 112.5 36 A 8 8 0 0 0 111.4 40 A 7.9 7.9 0 0 0 112.4 44.1 A 7.9 7.9 0 0 0 115.3 47.1 A 8 8 0 0 0 119.3 48.2 A 7.9 7.9 0 0 0 123.3 47.2 L 127.3 45 L 124.1 39.2 L 119.1 41.9 L 116.9 40.6 L 125 36.1 L 129.3 43.9 L 130.4 45.9 L 128.4 47.1 L 124.2 49.4 A 10.1 10.1 0 0 1 120.3 50.6 A 10.4 10.4 0 0 1 116.3 50.2 A 10.4 10.4 0 0 1 112.8 48.4 A 10.1 10.1 0 0 1 110.2 45.3 A 10.1 10.1 0 0 1 108.9 41.4 A 10.4 10.4 0 0 1 109.3 37.4 Q 109.8 35.5 111.1 33.9 Q 112.4 32.2 114.2 31.2 Z M 19.1 8.8 L 19.1 8.8 L 22.9 14.8 L 20.2 14.9 L 17.3 10.2 A 7.9 7.9 0 0 0 14.2 7.4 A 8 8 0 0 0 10.2 6.4 A 7.9 7.9 0 0 0 6.2 7.7 Q 4.3 8.8 3.3 10.7 A 8 8 0 0 0 2.4 14.8 Q 2.5 16.9 3.7 18.8 L 6.1 22.6 L 11.7 19.1 L 8.7 14.3 L 10 11.9 L 14.9 19.8 L 7.3 24.5 L 5.3 25.8 L 4.1 23.8 L 1.6 19.7 Q 0.5 18 0.1 15.9 A 10.4 10.4 0 0 1 0.3 11.9 A 10.4 10.4 0 0 1 1.9 8.3 A 10.1 10.1 0 0 1 4.9 5.5 A 10.1 10.1 0 0 1 8.7 4.1 A 10.4 10.4 0 0 1 12.7 4.2 Q 14.6 4.6 16.3 5.8 Q 18 7 19.1 8.8 Z M 26.8 46 L 36.7 27.8 L 51.9 36.2 L 50.8 38.2 L 37.6 31 L 29.9 45.1 L 43 52.3 L 41.9 54.3 L 26.8 46 Z M 47.6 56.6 L 52.7 36.5 L 69.5 40.8 L 68.9 43 L 54.3 39.3 L 50.4 54.9 L 64.9 58.6 L 64.4 60.8 L 47.6 56.6 Z M 140.2 9.5 L 136.3 15.8 L 134.3 14.6 L 143.5 0 L 144.7 2.4 L 141.5 7.6 L 157.1 17.3 L 155.8 19.3 L 140.2 9.5 Z M 138.4 23.6 L 132.1 17 L 133.7 15.4 L 148 30.4 L 146.3 32 L 140 25.3 L 132.1 32.8 L 129.6 32 L 138.4 23.6 Z M 90.8 39.9 L 95.1 57.8 L 105.7 55.2 L 104.9 57.8 L 93.4 60.5 L 92.9 58.3 L 88.6 40.4 L 90.8 39.9 Z M 135.4 42.3 L 121.2 27.2 L 122.9 25.7 L 137.1 40.7 L 135.4 42.3 Z M 111.5 55.4 L 109.3 56.2 L 102.1 36.8 L 104.3 36 L 111.5 55.4 Z M 35.1 40.1 L 35 37.4 L 47.5 44.2 L 46.3 46.3 L 35.1 40.1 Z M 54.2 48.7 L 53.5 46.2 L 67.2 49.7 L 66.6 51.9 L 54.2 48.7 Z"></path></g> <!----> <!----> <!----> <!----> <!----> <!----> <!----></g> <!----></g></g></svg>