<svg filter="url(#colors9482528393)" x="0" y="0" width="60" height="52.4625" filtersec="colorsf4076303152" class="image-svg-svg primary"><svg xmlns="http://www.w3.org/2000/svg" viewBox="0 0 95.6 83.6"><path d="M47.8 19s-9.5-7.8-1-11.7c.1 0 .2-.1.3-.1 2.8-.4 5.2 1.8 5.2 4.5 0 3.5-4.5 7.3-4.5 7.3zM24 22.8c-2.2-1.2-4.9-.5-6.2 1.7-1.2 2.2-.5 4.9 1.7 6.2 3.1 1.8 8.6-.3 8.6-.3s-1-5.8-4.1-7.6zm-4.5 30.1c-2.2 1.2-2.9 4-1.7 6.2s4 2.9 6.2 1.7c3.1-1.8 4.1-7.6 4.1-7.6s-5.5-2.1-8.6-.3zm23.8 19c0 2.7 2.4 4.9 5.2 4.5.1 0 .2 0 .3-.1 8.5-3.8-1-11.7-1-11.7s-4.5 3.7-4.5 7.3zm28.3-11.2c2.2 1.2 4.9.5 6.2-1.7 1.2-2.2.5-4.9-1.7-6.2-3.1-1.8-8.6.3-8.6.3s1 5.9 4.1 7.6zm4.5-30.1c2.2-1.2 2.9-4 1.7-6.2s-4-2.9-6.2-1.7c-3.1 1.8-4.1 7.6-4.1 7.6s5.5 2.1 8.6.3zM69.9 2.1c.5-.3 1.2.1 1.2.7-.8 12.2-10.9 21.9-23.3 21.9S25.3 15 24.5 2.8c0-.6.7-1 1.2-.7C35.9 8.9 39.2 22.5 33 33.2 26.8 44 13.4 47.9 2.4 42.5a.77.77 0 0 1 0-1.4c10.9-5.5 24.4-1.5 30.6 9.2 6.2 10.7 2.9 24.4-7.3 31.1-.5.3-1.2-.1-1.2-.7.7-12.2 10.9-21.9 23.3-21.9s22.5 9.7 23.3 21.9c0 .6-.7 1-1.2.7-10.2-6.8-13.5-20.4-7.3-31.1 6.2-10.7 19.6-14.7 30.6-9.2.6.3.6 1.1 0 1.4C82.3 48 68.8 44 62.6 33.3c-6.2-10.8-2.9-24.4 7.3-31.2z" fill="none" stroke="#333" stroke-width="4" stroke-miterlimit="10"></path></svg></svg>