<?xml version="1.0" standalone="no"?><!DOCTYPE svg PUBLIC "-//W3C//DTD SVG 1.1//EN" "http://www.w3.org/Graphics/SVG/1.1/DTD/svg11.dtd"><svg t="1606284696017" class="icon" viewBox="0 0 1024 1024" version="1.1" xmlns="http://www.w3.org/2000/svg" p-id="1501" xmlns:xlink="http://www.w3.org/1999/xlink" width="200" height="200"><defs><style type="text/css"></style></defs><path d="M1023.488 282.624c-4.437333 96.170667-74.197333 227.626667-208.682667 394.453333C675.584 851.498667 557.653333 938.666667 461.226667 938.666667c-59.605333 0-110.122667-53.034667-151.381334-159.445334-27.648-97.621333-55.082667-195.242667-82.645333-292.565333-30.72-106.453333-63.573333-159.658667-98.773333-159.658667-7.637333 0-34.304 15.530667-80.298667 46.634667L0 313.685333a13643.349333 13643.349333 0 0 0 149.248-128.426666c67.2-56.192 117.717333-85.674667 151.466667-88.746667 79.445333-7.466667 128.426667 45.056 146.944 157.354667 19.669333 121.173333 33.536 196.565333 41.173333 226.133333 23.04 100.437333 48.170667 150.570667 75.733333 150.570667 21.376 0 53.546667-32.426667 96.426667-97.408 42.837333-65.066667 65.664-114.474667 68.778667-148.565334 6.144-56.149333-16.768-84.053333-68.821334-84.053333-24.490667 0-49.792 4.992-75.733333 15.445333 50.602667-158.08 146.901333-234.965333 289.28-230.485333 105.386667 2.858667 155.178667 68.693333 148.992 197.12" fill="#1AB7EA" p-id="1502"></path></svg>