<svg id="Capa_1" enable-background="new 0 0 512 512" height="512" viewBox="0 0 512 512" width="512" xmlns="http://www.w3.org/2000/svg"><g><g><path d="m405.994 234.032 9.076 15.635c2.215 5.683 3.431 11.866 3.431 18.333 0 11.984-4.179 22.988-11.155 31.645-3.221 3.997-3.221 9.714 0 13.711 6.976 8.657 11.155 19.661 11.155 31.645 0 24.532-17.494 45.753-40.687 50.502l-12.692 2.135-216.554-.191-14.528-1.975c-23.12-4.81-40.54-25.992-40.54-50.472 0-11.984 4.179-22.988 11.155-31.645 3.221-3.997 3.221-9.714 0-13.711-6.976-8.656-11.155-19.66-11.155-31.644 0-6.613 1.271-12.929 3.582-18.717l7.918-20.283z" fill="#5d5360"/><path d="m407.34 313.36c6.98 8.65 11.16 19.66 11.16 31.64 0 24.53-17.49 45.75-40.69 50.5l-12.69 2.14-29.84-.03 12.53-2.11c23.2-4.75 40.69-25.97 40.69-50.5 0-11.98-4.18-22.99-11.16-31.64-3.22-4-3.22-9.72 0-13.72 3.49-4.32 6.28-9.24 8.2-14.57s2.96-11.08 2.96-17.07c0-6.47-1.22-12.65-3.43-18.33l-9.08-15.64h30l9.08 15.64c2.21 5.68 3.43 11.86 3.43 18.33 0 5.99-1.04 11.74-2.96 17.07s-4.71 10.25-8.2 14.57c-3.22 4-3.22 9.72 0 13.72z" fill="#514a54"/><path d="m299.5 332.5v55c0 2.761 2.239 5 5 5h50c44.183 0 80 35.817 80 80v12c0 11.046-8.954 20-20 20h-317c-11.046 0-20-8.954-20-20v-12c0-44.183 35.817-80 80-80h50c2.761 0 5-2.239 5-5v-55z" fill="#d48c64"/><path d="m434.5 472.5v12c0 11.05-8.95 20-20 20h-317c-11.05 0-20-8.95-20-20v-12c0-44.18 35.82-80 80-80h21c0 16.57 13.43 30 30 30h95c16.57 0 30-13.43 30-30h21c44.18 0 80 35.82 80 80z" fill="#c3aff0"/><path d="m434.5 472.5v12c0 11.05-8.95 20-20 20h-30c11.05 0 20-8.95 20-20v-12c0-41.14-31.06-75.03-71.01-79.5.01-.16.01-.33.01-.5h21c44.18 0 80 35.82 80 80z" fill="#ad96ed"/><path d="m407.07 412.21c-8.18 21.59-20.85 40.96-36.87 56.99-15.04 15.03-33.02 27.11-53.01 35.3h-122.38c-41.3-16.92-74.03-50.45-89.88-92.29 14.06-12.28 32.45-19.71 52.57-19.71h21c0 16.57 13.43 30 30 30h95c16.57 0 30-13.43 30-30h21c20.12 0 38.51 7.43 52.57 19.71z" fill="#e3d2ff"/><path d="m407.07 412.21c-3.14 8.29-6.95 16.25-11.34 23.83-11.96-23.32-35.04-40-62.24-43.04.01-.16.01-.33.01-.5h21c20.12 0 38.51 7.43 52.57 19.71z" fill="#cec0f9"/><path d="m353.5 259.5h36.5c16.845 0 30.5-13.655 30.5-30.5 0-16.845-13.655-30.5-30.5-30.5h-36.5z" fill="#d48c64"/><path d="m158.5 259.5h-36.5c-16.845 0-30.5-13.655-30.5-30.5 0-16.845 13.655-30.5 30.5-30.5h36.5z" fill="#d48c64"/><path d="m373.5 158.5v81.5c0 64.893-52.606 117.5-117.5 117.5-64.893 0-117.5-52.606-117.5-117.5v-81.5z" fill="#e29a6c"/><path d="m373.5 158.5v81.5c0 64.89-52.61 117.5-117.5 117.5-5.08 0-10.09-.32-15-.95 57.81-7.37 102.5-56.74 102.5-116.55v-81.5z" fill="#d48c64"/><path d="m285.611 27.318 13.629-4.568c4.66-1.46 9.62-2.25 14.76-2.25 23.02 0 42.37 15.72 47.9 37.01 1.02 3.91 4.17 6.92 8.17 7.5 11.99 1.71 22.6 7.72 30.21 16.43 7.61 8.7 12.22 20.09 12.22 32.56 0 9.82-2.86 18.96-7.79 26.66-2.44 3.82-2.06 8.78.99 12.14 3.98 4.39 7.18 9.5 9.38 15.1 2.21 5.6 3.42 11.71 3.42 18.1 0 7.21-1.54 14.07-4.32 20.25 0 0-.53 1.04-1.33 2.56-5.59-6.33-13.76-10.31-22.85-10.31h-16.5v-12.18c0-7.47-7.89-12.31-14.54-8.9-19.33 9.91-38.66 8.15-57.99-5.27-3.5-2.43-8.1-2.43-11.61 0-22.24 15.44-44.48 15.44-66.72 0-3.51-2.43-8.11-2.43-11.61 0-19.33 13.42-38.66 15.18-57.99 5.27-6.65-3.41-14.54 1.43-14.54 8.9v12.18h-16.5c-9.05 0-17.18 3.94-22.75 10.21-.59-.81-.89-1.3-.89-1.3-1.56-3.24-2.78-6.67-3.6-10.26-.82-3.58-1.26-7.31-1.26-11.15 0-12.78 4.85-24.42 12.8-33.2 3.05-3.36 3.43-8.32.99-12.14-2.47-3.85-4.41-8.06-5.74-12.54-1.33-4.47-2.05-9.21-2.05-14.12 0-24.94 18.44-45.57 42.43-48.99 4-.58 7.15-3.59 8.17-7.5 2.76-10.65 8.98-19.9 17.39-26.49s19-10.52 30.51-10.52c5.14 0 10.1.79 14.76 2.25l13.578 5.371z" fill="#6f6571"/><path d="m418.5 186c0 7.21-1.54 14.07-4.32 20.25 0 0-.53 1.04-1.33 2.56-5.59-6.33-13.76-10.31-22.85-10.31h-3.09c1.04-4 1.59-8.18 1.59-12.5 0-6.39-1.21-12.5-3.42-18.1-2.2-5.6-5.4-10.71-9.38-15.1-3.05-3.36-3.43-8.32-.99-12.14 4.93-7.7 7.79-16.84 7.79-26.66 0-12.47-4.61-23.86-12.22-32.56-7.61-8.71-18.22-14.72-30.21-16.43-4-.58-7.15-3.59-8.17-7.5-4.27-16.45-16.79-29.57-32.88-34.69l.22-.07c4.66-1.46 9.62-2.25 14.76-2.25 23.02 0 42.37 15.72 47.9 37.01 1.02 3.91 4.17 6.92 8.17 7.5 11.99 1.71 22.6 7.72 30.21 16.43 7.61 8.7 12.22 20.09 12.22 32.56 0 9.82-2.86 18.96-7.79 26.66-2.44 3.82-2.06 8.78.99 12.14 3.98 4.39 7.18 9.5 9.38 15.1 2.21 5.6 3.42 11.71 3.42 18.1z" fill="#5d5360"/><path d="m114 151.5c-24.853 0-45-20.147-45-45 0-24.853 20.147-45 45-45 24.853 0 45 20.147 45 45 0 24.853-20.147 45-45 45z" fill="#faa4aa"/><path d="m159 106.5c0 12.42-5.04 23.68-13.18 31.82s-19.4 13.18-31.82 13.18c-5.26 0-10.31-.9-15-2.57 6.4-2.25 12.13-5.92 16.82-10.61 8.14-8.14 13.18-19.4 13.18-31.82s-5.04-23.68-13.18-31.82c-4.69-4.69-10.42-8.36-16.82-10.61 4.69-1.67 9.74-2.57 15-2.57 12.42 0 23.68 5.04 31.82 13.18s13.18 19.4 13.18 31.82z" fill="#fc8d94"/><path d="m114 121.5c-8.284 0-15-6.716-15-15 0-8.284 6.716-15 15-15 8.284 0 15 6.716 15 15 0 8.284-6.716 15-15 15z" fill="#fa6f7c"/><path d="m256 97.5c-24.853 0-45-20.147-45-45 0-24.853 20.147-45 45-45 24.853 0 45 20.147 45 45 0 24.853-20.147 45-45 45z" fill="#faa4aa"/><path d="m301 52.5c0 12.42-5.04 23.68-13.18 31.82s-19.4 13.18-31.82 13.18c-5.26 0-10.31-.9-15-2.57 6.4-2.25 12.13-5.92 16.82-10.61 8.14-8.14 13.18-19.4 13.18-31.82s-5.04-23.68-13.18-31.82c-4.69-4.69-10.42-8.36-16.82-10.61 4.69-1.67 9.74-2.57 15-2.57 12.42 0 23.68 5.04 31.82 13.18s13.18 19.4 13.18 31.82z" fill="#fc8d94"/><path d="m256 67.5c-8.284 0-15-6.716-15-15 0-8.284 6.716-15 15-15 8.284 0 15 6.716 15 15 0 8.284-6.716 15-15 15z" fill="#fa6f7c"/><path d="m398 151.5c24.853 0 45-20.147 45-45 0-24.853-20.147-45-45-45-24.853 0-45 20.147-45 45 0 24.853 20.147 45 45 45z" fill="#faa4aa"/><path d="m443 106.5c0 24.85-20.15 45-45 45-5.26 0-10.31-.9-15-2.57 17.48-6.17 30-22.84 30-42.43 0-12.42-5.04-23.68-13.18-31.82-4.69-4.69-10.42-8.36-16.82-10.61 4.69-1.67 9.74-2.57 15-2.57 12.42 0 23.68 5.04 31.82 13.18s13.18 19.4 13.18 31.82z" fill="#fc8d94"/><path d="m398 121.5c8.284 0 15-6.716 15-15 0-8.284-6.716-15-15-15-8.284 0-15 6.716-15 15 0 8.284 6.716 15 15 15z" fill="#fa6f7c"/></g><g><path d="m396.977 396.026c17.519-10.351 29.023-29.614 29.023-51.026 0-13.187-4.552-26.096-12.815-36.351-1.004-1.246-1.004-3.053 0-4.299 8.263-10.254 12.815-23.163 12.815-36.35 0-6.711-1.148-13.268-3.386-19.525 3.416-5.699 5.386-12.36 5.386-19.475 0-7.789-2.359-15.036-6.396-21.071 2.905-6.942 4.396-14.308 4.396-21.929 0-7.207-1.327-14.222-3.939-20.843-1.345-3.424-3.018-6.681-4.983-9.761 19.541-7.651 33.423-26.677 33.423-48.896 0-28.949-23.552-52.5-52.5-52.5-7.663 0-14.94 1.664-21.51 4.628-.087-.024-.171-.055-.259-.076-1.678-.398-3.394-.724-5.085-.965-.931-.135-1.711-.908-1.986-1.963-6.52-25.096-29.203-42.624-55.161-42.624-5.79 0-11.51.873-17.002 2.593-.126.04-.25.082-.374.128l-2.367.881c-9.584-10.207-23.184-16.602-38.257-16.602-15.132 0-28.78 6.443-38.37 16.72l-.882-.398c-.973-.439-1.899-.785-2.836-1.059-5.155-1.502-10.509-2.263-15.912-2.263-12.87 0-25.02 4.19-35.136 12.116-9.805 7.683-16.917 18.519-20.021 30.5-.277 1.062-1.057 1.836-1.972 1.968-1.796.256-3.588.619-5.353 1.046-6.572-2.965-13.852-4.63-21.518-4.63-28.949 0-52.5 23.551-52.5 52.5 0 22.223 13.886 41.252 33.432 48.9-5.795 9.095-8.932 19.699-8.932 30.6 0 4.311.487 8.625 1.448 12.821.709 3.103 1.697 6.16 2.937 9.124-4.03 6.031-6.385 13.273-6.385 21.055 0 7.113 1.969 13.773 5.384 19.472-2.239 6.255-3.384 12.812-3.384 19.528 0 13.186 4.551 26.095 12.815 36.35 1.003 1.246 1.003 3.054 0 4.299-5.662 7.026-9.649 15.383-11.53 24.166-.868 4.05 1.712 8.037 5.763 8.904.53.114 1.058.168 1.578.168 3.461 0 6.572-2.41 7.326-5.931 1.392-6.5 4.346-12.688 8.543-17.896 5.398-6.699 5.398-16.423 0-23.123-6.212-7.707-9.495-17.022-9.495-26.937 0-2.359.2-4.689.573-6.982 5.905 3.78 12.911 5.982 20.427 5.982h11.946c8.61 38.949 35.435 71.132 71.054 87.114v30.886h-19v-10c0-13.785-11.215-25-25-25s-25 11.215-25 25c0 4.331 1.108 8.407 3.054 11.963-1.4.302-2.787.636-4.161 1.004-12.086-2.733-22.812-11.053-28.787-22.395-1.93-3.666-6.466-5.071-10.131-3.141-3.665 1.931-5.071 6.466-3.141 10.131 5.232 9.932 12.945 17.985 22.194 23.461-26.835 14.962-45.028 43.633-45.028 76.477v12c0 15.164 12.336 27.5 27.5 27.5h272.5c4.143 0 7.5-3.358 7.5-7.5s-3.357-7.5-7.5-7.5h-22.379c26.865-17.407 48.557-42.29 62.006-71.509 10.819 12.668 17.373 29.083 17.373 47.009v12c0 6.893-5.607 12.5-12.5 12.5h-9.5c-4.143 0-7.5 3.358-7.5 7.5s3.357 7.5 7.5 7.5h9.5c15.163 0 27.5-12.336 27.5-27.5v-12c0-32.842-18.191-61.511-45.023-76.474zm-45.977-11.026h-10v-10c0-5.514 4.486-10 10-10s10 4.486 10 10-4.486 10-10 10zm50.505-66.938c6.212 7.707 9.495 17.022 9.495 26.938 0 20.608-14.202 38.537-33.884 42.969-1.377-.369-2.767-.704-4.17-1.007 1.946-3.555 3.054-7.631 3.054-11.962 0-13.785-11.215-25-25-25s-25 11.215-25 25v10h-19v-30.886c35.619-15.981 62.444-48.164 71.054-87.114h11.946c7.516 0 14.522-2.202 20.427-5.982.374 2.294.573 4.624.573 6.982 0 9.916-3.283 19.231-9.495 26.938-5.399 6.7-5.399 16.424 0 23.124zm11.495-89.062c0 12.682-10.317 23-23 23h-9.579c.378-3.95.579-7.952.579-12v-3.5h9.5c4.143 0 7.5-3.358 7.5-7.5s-3.357-7.5-7.5-7.5h-9.5v-15.5h9c12.683 0 23 10.318 23 23zm22.5-122.5c0 20.678-16.822 37.5-37.5 37.5s-37.5-16.822-37.5-37.5 16.822-37.5 37.5-37.5 37.5 16.822 37.5 37.5zm-179.5-91.5c20.678 0 37.5 16.822 37.5 37.5s-16.822 37.5-37.5 37.5-37.5-16.822-37.5-37.5 16.822-37.5 37.5-37.5zm-179.5 91.5c0-20.678 16.822-37.5 37.5-37.5s37.5 16.822 37.5 37.5-16.822 37.5-37.5 37.5-37.5-16.822-37.5-37.5zm37.5 52.5c28.949 0 52.5-23.551 52.5-52.5 0-14.6-5.996-27.822-15.648-37.348 3.123-2.349 5.461-5.747 6.508-9.761 2.287-8.824 7.527-16.803 14.756-22.468 7.45-5.838 16.401-8.923 25.884-8.923 3.682 0 7.324.5 10.846 1.445-3.419 6.964-5.346 14.788-5.346 23.055 0 28.949 23.551 52.5 52.5 52.5 28.948 0 52.5-23.551 52.5-52.5 0-8.275-1.931-16.106-5.357-23.075 3.528-.946 7.172-1.425 10.857-1.425 19.127 0 35.84 12.91 40.643 31.402 1.045 4.006 3.381 7.401 6.506 9.75-9.653 9.525-15.649 22.748-15.649 37.348 0 28.949 23.552 52.5 52.5 52.5 1.03 0 2.052-.038 3.068-.097 2.983 3.518 5.35 7.458 7.036 11.75 1.921 4.87 2.896 10.034 2.896 15.347 0 3.591-.451 7.101-1.327 10.5-5.742-3.489-12.477-5.5-19.673-5.5h-9v-4.68c0-6.145-3.131-11.727-8.374-14.932-5.238-3.201-11.625-3.443-17.086-.644-16.815 8.618-33.267 7.062-50.29-4.755-6.03-4.186-14.134-4.186-20.166 0-19.571 13.583-38.597 13.585-58.168 0-6.03-4.187-14.134-4.186-20.165 0-17.024 11.818-33.475 13.374-50.291 4.755-5.461-2.798-11.848-2.558-17.085.644-5.244 3.205-8.375 8.787-8.375 14.932v4.68h-9c-7.193 0-13.926 2.01-19.667 5.496-.087-.34-.185-.679-.263-1.021-.71-3.102-1.07-6.29-1.07-9.476 0-9.929 3.529-19.527 9.935-27.096 1.015.059 2.035.097 3.065.097zm8 93c-12.682 0-23-10.318-23-23s10.318-23 23-23h9v15.5h-9.5c-4.142 0-7.5 3.358-7.5 7.5s3.358 7.5 7.5 7.5h9.5v3.5c0 4.048.201 8.05.579 12zm24-12v-41.5-12.179c.31-2.163 1.556-2.932 3.619-2.226 21.895 11.219 43.995 9.274 65.685-5.783.929-.645 2.129-.645 3.059 0 24.974 17.335 50.301 17.337 75.274 0 .929-.645 2.13-.646 3.059 0 21.693 15.058 43.792 17.003 65.686 5.782 2.063-.707 3.309.062 3.619 2.226v12.18 41.5c0 60.654-49.346 110-110 110s-110.001-49.346-110.001-110zm61.5 160c6.893 0 12.5-5.607 12.5-12.5v-27.792c11.406 3.436 23.489 5.292 36 5.292s24.594-1.856 36-5.292v27.792c0 6.893 5.607 12.5 12.5 12.5h20.21c-3.096 8.729-11.433 15-21.21 15h-95c-9.778 0-18.114-6.271-21.21-15zm-46.5-35c5.514 0 10 4.486 10 10v10h-10c-5.514 0-10-4.486-10-10s4.486-10 10-10zm-76 119.5v-12c0-17.925 6.553-34.34 17.371-47.008 13.448 29.214 35.146 54.1 62.009 71.508h-66.88c-6.893 0-12.5-5.607-12.5-12.5zm230.691 12.5h-119.383c-36.991-15.571-66.828-45.477-82.355-82.423 12.134-9.146 27.217-14.577 43.547-14.577h14.255c3.484 17.096 18.635 30 36.745 30h95c18.11 0 33.261-12.904 36.745-30h14.255c16.331 0 31.414 5.432 43.549 14.578-15.53 36.951-45.359 66.847-82.358 82.422z"/><path d="m298.322 280.531c-2.669-3.169-7.397-3.578-10.568-.91-18.783 15.805-44.888 15.814-63.481.022-3.158-2.681-7.89-2.294-10.572.862-2.681 3.157-2.295 7.89.862 10.572 12.148 10.317 26.74 15.474 41.362 15.474 14.608 0 29.246-5.151 41.488-15.452 3.168-2.668 3.575-7.399.909-10.568z"/><path d="m315.5 251.5c4.143 0 7.5-3.358 7.5-7.5v-15c0-4.142-3.357-7.5-7.5-7.5s-7.5 3.358-7.5 7.5v15c0 4.142 3.357 7.5 7.5 7.5z"/><path d="m196.5 221.5c-4.142 0-7.5 3.358-7.5 7.5v15c0 4.142 3.358 7.5 7.5 7.5s7.5-3.358 7.5-7.5v-15c0-4.142-3.358-7.5-7.5-7.5z"/><path d="m136.5 106.5c0-12.407-10.093-22.5-22.5-22.5s-22.5 10.093-22.5 22.5 10.093 22.5 22.5 22.5 22.5-10.093 22.5-22.5zm-30 0c0-4.136 3.364-7.5 7.5-7.5s7.5 3.364 7.5 7.5-3.364 7.5-7.5 7.5-7.5-3.364-7.5-7.5z"/><path d="m256 75c12.406 0 22.5-10.093 22.5-22.5s-10.094-22.5-22.5-22.5c-12.407 0-22.5 10.093-22.5 22.5s10.093 22.5 22.5 22.5zm0-30c4.136 0 7.5 3.364 7.5 7.5s-3.364 7.5-7.5 7.5-7.5-3.364-7.5-7.5 3.364-7.5 7.5-7.5z"/><path d="m398 129c12.406 0 22.5-10.093 22.5-22.5s-10.094-22.5-22.5-22.5-22.5 10.093-22.5 22.5 10.094 22.5 22.5 22.5zm0-30c4.136 0 7.5 3.364 7.5 7.5s-3.364 7.5-7.5 7.5-7.5-3.364-7.5-7.5 3.364-7.5 7.5-7.5z"/></g></g></svg>