<svg id="Capa_1" enable-background="new 0 0 512 512" height="512" viewBox="0 0 512 512" width="512" xmlns="http://www.w3.org/2000/svg"><g><g><g fill="#fbbd80"><path d="m363.5 259.5h26.5c16.845 0 30.5-13.655 30.5-30.5 0-16.845-13.655-30.5-30.5-30.5h-25.5z"/><path d="m148.5 259.5h-26.5c-16.845 0-30.5-13.655-30.5-30.5 0-16.845 13.655-30.5 30.5-30.5h25.5z"/><path d="m299.5 332.5v55c0 2.761 2.239 5 5 5h50c44.183 0 80 35.817 80 80v12c0 11.046-8.954 20-20 20h-317c-11.046 0-20-8.954-20-20v-12c0-44.183 35.817-80 80-80h50c2.761 0 5-2.239 5-5v-55z"/></g><path d="m373.5 150.667v89.333c0 64.893-52.606 117.5-117.5 117.5-64.893 0-117.5-52.606-117.5-117.5v-90.5l143.239-36.08z" fill="#ffd18d"/><path d="m373.5 150.67v89.33c0 64.89-52.61 117.5-117.5 117.5-5.08 0-10.09-.32-15-.95 57.81-7.37 102.5-56.74 102.5-116.55v-89.33z" fill="#fbbd80"/><path d="m297 46.167v-18.167c0-11.322-9.178-20.5-20.5-20.5-11.322 0-20.5 9.178-20.5 20.5v9.5z" fill="#ffd064"/><path d="m215 46.5v-18.5c0-11.322 9.178-20.5 20.5-20.5 11.322 0 20.5 9.178 20.5 20.5v11.866z" fill="#ffd064"/><path d="m403.5 158.5v-11c0-60.751-49.249-110-110-110h-75c-60.751 0-110 49.249-110 110v11c0 5.523 4.477 10 10 10h52.773c1.417 0 2.768-.602 3.716-1.655l12.794-14.215c1.986-2.207 5.447-2.207 7.433 0l12.794 14.215c.948 1.054 2.299 1.655 3.716 1.655h88.547c1.417 0 2.768-.602 3.716-1.655l12.794-14.215c1.986-2.207 5.447-2.207 7.433 0l12.794 14.215c.948 1.054 2.299 1.655 3.716 1.655h52.774c5.523 0 10-4.477 10-10z" fill="#ffe07d"/><path d="m403.5 147.5v11c0 5.52-4.48 10-10 10h-30c5.52 0 10-4.48 10-10v-11c0-60.75-49.25-110-110-110h30c60.75 0 110 49.25 110 110z" fill="#ffd064"/><path d="m434.5 472.5v12c0 11.05-8.95 20-20 20h-317c-11.05 0-20-8.95-20-20v-12c0-44.18 35.82-80 80-80h21c0 16.57 13.43 30 30 30h95c16.57 0 30-13.43 30-30h21c44.18 0 80 35.82 80 80z" fill="#c3aff0"/><path d="m434.5 472.5v12c0 11.05-8.95 20-20 20h-30c11.05 0 20-8.95 20-20v-12c0-41.14-31.06-75.03-71.01-79.5.01-.16.01-.33.01-.5h21c44.18 0 80 35.82 80 80z" fill="#ad96ed"/><path d="m407.07 412.21c-8.18 21.59-20.85 40.96-36.87 56.99-15.04 15.03-33.02 27.11-53.01 35.3h-122.38c-41.3-16.92-74.03-50.45-89.88-92.29 14.06-12.28 32.45-19.71 52.57-19.71h21c0 16.57 13.43 30 30 30h95c16.57 0 30-13.43 30-30h21c20.12 0 38.51 7.43 52.57 19.71z" fill="#e3d2ff"/><path d="m407.07 412.21c-3.14 8.29-6.95 16.25-11.34 23.83-11.96-23.32-35.04-40-62.24-43.04.01-.16.01-.33.01-.5h21c20.12 0 38.51 7.43 52.57 19.71z" fill="#cec0f9"/></g><g><path d="m372.946 386.963c1.946-3.556 3.054-7.632 3.054-11.963 0-13.785-11.215-25-25-25s-25 11.215-25 25v10h-19v-30.886c35.619-15.982 62.445-48.164 71.054-87.114h11.946c20.953 0 38-17.047 38-38s-17.047-38-38-38h-9v-15h12.5c9.649 0 17.5-7.851 17.5-17.5v-11c0-61.08-46.85-111.416-106.5-116.981v-2.519c0-15.439-12.561-28-28-28-8.089 0-15.384 3.452-20.5 8.955-5.116-5.503-12.411-8.955-20.5-8.955-15.439 0-28 12.561-28 28v2.509c-28.286 2.59-54.299 15.149-74.157 36.031-2.854 3.001-2.735 7.749.266 10.603 3.002 2.854 7.749 2.736 10.604-.266 19.548-20.556 45.931-31.877 74.287-31.877h75c56.519 0 102.5 45.981 102.5 102.5v11c0 1.378-1.122 2.5-2.5 2.5h-51.659l-12.049-13.388c-2.367-2.63-5.753-4.138-9.292-4.138-3.538 0-6.924 1.508-9.291 4.138l-12.049 13.388h-86.32l-12.049-13.387c-2.367-2.63-5.753-4.139-9.292-4.139s-6.925 1.508-9.291 4.138l-12.048 13.388h-51.66c-1.378 0-2.5-1.122-2.5-2.5v-11c0-15.288 3.282-29.992 9.755-43.703 1.768-3.746.166-8.216-3.581-9.984-3.745-1.768-8.215-.166-9.984 3.581-7.425 15.729-11.19 32.587-11.19 50.106v11c0 9.649 7.851 17.5 17.5 17.5h12.5v15h-9c-20.953 0-38 17.047-38 38s17.047 38 38 38h11.946c8.61 38.949 35.435 71.132 71.054 87.114v30.886h-19v-10c0-13.785-11.215-25-25-25s-25 11.215-25 25c0 4.331 1.108 8.407 3.054 11.963-39.419 8.492-69.054 43.616-69.054 85.537v12c0 15.164 12.336 27.5 27.5 27.5h272.5c4.142 0 7.5-3.358 7.5-7.5s-3.358-7.5-7.5-7.5h-22.379c26.865-17.407 48.557-42.289 62.006-71.509 10.819 12.668 17.373 29.083 17.373 47.009v12c0 6.893-5.607 12.5-12.5 12.5h-9.5c-4.142 0-7.5 3.358-7.5 7.5s3.358 7.5 7.5 7.5h9.5c15.164 0 27.5-12.336 27.5-27.5v-12c0-41.921-29.635-77.045-69.054-85.537zm-96.446-371.963c7.168 0 13 5.832 13 13v2h-26v-2c0-7.168 5.832-13 13-13zm-41 0c7.168 0 13 5.832 13 13v2h-26v-2c0-7.168 5.832-13 13-13zm105.5 360c0-5.514 4.486-10 10-10s10 4.486 10 10-4.486 10-10 10h-10zm49-169c12.682 0 23 10.318 23 23s-10.318 23-23 23h-9.579c.378-3.95.579-7.952.579-12v-3.5h9.5c4.142 0 7.5-3.358 7.5-7.5s-3.358-7.5-7.5-7.5h-9.5v-15.5zm-268 46c-12.682 0-23-10.318-23-23s10.318-23 23-23h9v15.5h-9.5c-4.142 0-7.5 3.358-7.5 7.5s3.358 7.5 7.5 7.5h9.5v3.5c0 4.048.201 8.05.579 12zm24-12v-64h25.273c3.538 0 6.925-1.508 9.292-4.138l10.936-12.15 10.935 12.15c2.367 2.63 5.754 4.138 9.292 4.138h88.546c3.539 0 6.925-1.508 9.292-4.138l10.936-12.15 10.935 12.15c2.367 2.63 5.753 4.138 9.292 4.138h25.271v64c0 60.654-49.346 110-110 110s-110-49.346-110-110zm61.5 160c6.893 0 12.5-5.607 12.5-12.5v-27.792c11.406 3.436 23.489 5.292 36 5.292s24.594-1.856 36-5.292v27.792c0 6.893 5.607 12.5 12.5 12.5h20.21c-3.096 8.729-11.432 15-21.21 15h-95c-9.778 0-18.114-6.271-21.21-15zm-46.5-35c5.514 0 10 4.486 10 10v10h-10c-5.514 0-10-4.486-10-10s4.486-10 10-10zm-76 119.5v-12c0-17.925 6.553-34.34 17.371-47.008 13.448 29.214 35.146 54.1 62.009 71.508h-66.88c-6.893 0-12.5-5.607-12.5-12.5zm230.69 12.5h-119.382c-36.991-15.571-66.828-45.477-82.355-82.423 12.134-9.146 27.217-14.577 43.547-14.577h14.255c3.484 17.096 18.635 30 36.745 30h95c18.11 0 33.261-12.904 36.745-30h14.255c16.331 0 31.414 5.432 43.548 14.578-15.529 36.952-45.358 66.848-82.358 82.422z"/><path d="m298.321 280.531c-2.667-3.169-7.398-3.577-10.567-.91-18.784 15.805-44.887 15.813-63.481.022-3.158-2.681-7.891-2.294-10.572.862-2.681 3.157-2.295 7.89.862 10.572 12.148 10.317 26.74 15.474 41.362 15.474 14.607 0 29.245-5.151 41.487-15.452 3.169-2.668 3.576-7.399.909-10.568z"/><path d="m315.5 251.5c4.142 0 7.5-3.358 7.5-7.5v-15c0-4.142-3.358-7.5-7.5-7.5s-7.5 3.358-7.5 7.5v15c0 4.142 3.358 7.5 7.5 7.5z"/><path d="m196.5 221.5c-4.142 0-7.5 3.358-7.5 7.5v15c0 4.142 3.358 7.5 7.5 7.5s7.5-3.358 7.5-7.5v-15c0-4.142-3.358-7.5-7.5-7.5z"/></g></g></svg>